<svg viewBox="0 0 483 500" fill="none" xmlns="http://www.w3.org/2000/svg">
<path fill-rule="evenodd" clip-rule="evenodd" d="M225.607 254.646C257.879 223.898 248.032 185.868 218.803 139.786C189.574 93.7039 130.737 77.3094 119.761 87.7674C108.784 98.2253 106.351 172.996 135.58 219.078C164.809 265.16 193.334 285.394 225.607 254.646Z" fill="url(#paint0_linear_16_59)"/>
<path fill-rule="evenodd" clip-rule="evenodd" d="M253.511 258.902C277.387 296.544 309.306 282.78 348.814 245.138C388.323 207.496 404.705 135.389 396.585 122.587C388.464 109.784 326.754 110.426 287.246 148.068C247.737 185.71 229.636 221.259 253.511 258.902Z" fill="url(#paint1_linear_16_59)"/>
<path fill-rule="evenodd" clip-rule="evenodd" d="M240.457 238.193C280.102 243.061 295.692 206.436 302.961 147.234C310.23 88.0314 280.265 25.4586 266.781 23.803C253.298 22.1474 207.998 75.4788 200.729 134.681C193.46 193.883 200.813 233.325 240.457 238.193Z" fill="url(#paint2_linear_16_59)"/>
<path fill-rule="evenodd" clip-rule="evenodd" d="M230.473 500C313.592 500 381 475.855 381 366.355C381 256.855 313.592 167 230.473 167C147.355 167 80 256.855 80 366.355C80 475.855 147.355 500 230.473 500Z" fill="url(#paint3_linear_16_59)"/>
<path d="M306.5 344C318.374 344 328 339.523 328 334C328 328.477 318.374 324 306.5 324C294.626 324 285 328.477 285 334C285 339.523 294.626 344 306.5 344Z" fill="#EAADCC"/>
<path d="M147.281 337.925C159.067 339.373 169.167 336.102 169.84 330.62C170.513 325.139 161.504 319.522 149.719 318.075C137.933 316.627 127.833 319.898 127.16 325.38C126.487 330.861 135.496 336.478 147.281 337.925Z" fill="#EAADCC"/>
<path d="M244.247 330.459C237.777 335.718 230.303 337.863 221.825 336.894C213.348 335.925 207.065 332.407 202.975 326.338" stroke="black" stroke-width="6" stroke-linecap="round" stroke-linejoin="round"/>
<path fill-rule="evenodd" clip-rule="evenodd" d="M160.982 278.418C166.916 278.211 172.372 280.428 176.397 284.18C180.421 287.933 183.014 293.22 183.221 299.154C183.428 305.088 181.211 310.544 177.458 314.568C173.705 318.592 168.417 321.185 162.483 321.392C156.55 321.599 151.094 319.382 147.07 315.629C143.047 311.876 140.454 306.589 140.247 300.655C140.04 294.721 142.257 289.265 146.009 285.242C149.762 281.218 155.049 278.625 160.982 278.418V278.418Z" fill="black"/>
<path fill-rule="evenodd" clip-rule="evenodd" d="M162.111 296.389C161.977 292.526 158.734 289.503 154.872 289.638C151.008 289.773 147.985 293.015 148.12 296.878C148.255 300.741 151.497 303.764 155.361 303.629C159.222 303.493 162.246 300.253 162.111 296.389Z" fill="white"/>
<path fill-rule="evenodd" clip-rule="evenodd" d="M291.253 283.875C297.187 283.668 302.643 285.885 306.667 289.637C310.691 293.39 313.283 298.677 313.491 304.611C313.698 310.545 311.481 316.001 307.728 320.025C303.976 324.049 298.688 326.641 292.754 326.849C286.821 327.056 281.365 324.838 277.341 321.086C273.317 317.333 270.724 312.046 270.517 306.112C270.31 300.178 272.527 294.723 276.28 290.699C280.032 286.675 285.32 284.082 291.253 283.875V283.875Z" fill="black"/>
<path d="M180.223 299.259C180.579 309.471 172.59 318.037 162.378 318.394C152.168 318.75 143.602 310.762 143.245 300.55C142.889 290.339 150.876 281.773 161.087 281.416C171.299 281.059 179.866 289.047 180.223 299.259ZM186.219 299.049C185.747 285.526 174.401 274.947 160.878 275.42C147.355 275.892 136.777 287.236 137.249 300.759C137.721 314.283 149.065 324.862 162.588 324.39C176.112 323.918 186.691 312.573 186.219 299.049Z" fill="white" stroke="white" stroke-width="3"/>
<path d="M310.492 304.716C310.849 314.928 302.861 323.494 292.649 323.85C282.439 324.207 273.872 316.219 273.515 306.007C273.158 295.796 281.147 287.23 291.358 286.873C301.57 286.516 310.136 294.504 310.492 304.716ZM316.489 304.506C316.017 290.983 304.672 280.404 291.149 280.877C277.626 281.349 267.046 292.693 267.519 306.216C267.991 319.74 279.336 330.319 292.859 329.847C306.383 329.375 316.961 318.03 316.489 304.506Z" fill="white" stroke="white" stroke-width="3"/>
<path fill-rule="evenodd" clip-rule="evenodd" d="M292.381 301.846C292.246 297.983 289.004 294.96 285.141 295.095C281.278 295.23 278.255 298.472 278.39 302.335C278.525 306.198 281.767 309.221 285.63 309.086C289.493 308.952 292.516 305.71 292.381 301.846Z" fill="white"/>
<path d="M116.5 376.5L190.5 453.5" stroke="#ECB732" stroke-width="11" stroke-linecap="round"/>
<path d="M180.5 385.5L133.5 435.5" stroke="#ECB732" stroke-width="11" stroke-linecap="round"/>
<path d="M343.5 376.5L269.5 453.5" stroke="#ECB732" stroke-width="11" stroke-linecap="round"/>
<path d="M279.5 385.5L326.5 435.5" stroke="#ECB732" stroke-width="11" stroke-linecap="round"/>
<path d="M260.5 206.5L211.5 255.5" stroke="#FFC73B" stroke-width="11" stroke-linecap="round"/>
<path d="M250.5 255.5L201.5 206.5" stroke="#FFC73B" stroke-width="11" stroke-linecap="round"/>
<defs>
<linearGradient id="paint0_linear_16_59" x1="115.52" y1="91.039" x2="132.101" y2="171.505" gradientUnits="userSpaceOnUse">
<stop stop-color="#52CE63"/>
<stop offset="1" stop-color="#51A256"/>
</linearGradient>
<linearGradient id="paint1_linear_16_59" x1="406.844" y1="135.664" x2="326.369" y2="152.226" gradientUnits="userSpaceOnUse">
<stop stop-color="#52CE63"/>
<stop offset="1" stop-color="#51A256"/>
</linearGradient>
<linearGradient id="paint2_linear_16_59" x1="266.238" y1="23.7363" x2="250.757" y2="149.822" gradientUnits="userSpaceOnUse">
<stop stop-color="#8AE99C"/>
<stop offset="1" stop-color="#52CE63"/>
</linearGradient>
<linearGradient id="paint3_linear_16_59" x1="234.647" y1="225.184" x2="209.659" y2="499.586" gradientUnits="userSpaceOnUse">
<stop stop-color="#FFE56C"/>
<stop offset="1" stop-color="#FFC63A"/>
</linearGradient>
</defs>
</svg>
